<?xml version="1.0" encoding="UTF-8" standalone="no"?>
<!-- Created with Inkscape (http://www.inkscape.org/) -->

<svg
   width="210mm"
   height="297mm"
   viewBox="0 0 210 297"
   version="1.1"
   id="svg1"
   xml:space="preserve"
   sodipodi:docname="logo.svg"
   inkscape:version="1.3.2 (091e20e, 2023-11-25)"
   xmlns:inkscape="http://www.inkscape.org/namespaces/inkscape"
   xmlns:sodipodi="http://sodipodi.sourceforge.net/DTD/sodipodi-0.dtd"
   xmlns:xlink="http://www.w3.org/1999/xlink"
   xmlns="http://www.w3.org/2000/svg"
   xmlns:svg="http://www.w3.org/2000/svg"><sodipodi:namedview
     id="namedview1"
     pagecolor="#ffffff"
     bordercolor="#666666"
     borderopacity="1.0"
     inkscape:showpageshadow="2"
     inkscape:pageopacity="0.0"
     inkscape:pagecheckerboard="0"
     inkscape:deskcolor="#d1d1d1"
     inkscape:document-units="mm"
     inkscape:zoom="0.91563682"
     inkscape:cx="600.67484"
     inkscape:cy="646.54456"
     inkscape:window-width="1728"
     inkscape:window-height="1051"
     inkscape:window-x="0"
     inkscape:window-y="38"
     inkscape:window-maximized="1"
     inkscape:current-layer="layer1" /><defs
     id="defs1"><linearGradient
       id="linearGradient3216"
       inkscape:collect="always"><stop
         style="stop-color:#ffffff;stop-opacity:0.48091602;"
         offset="0"
         id="stop3215" /><stop
         style="stop-color:#4cc7ec;stop-opacity:0;"
         offset="1"
         id="stop3216" /></linearGradient><inkscape:path-effect
       effect="mirror_symmetry"
       start_point="90.458009,0.57792203"
       end_point="90.458009,297.57792"
       center_point="90.458009,149.07792"
       id="path-effect3214"
       is_visible="false"
       lpeversion="1.2"
       lpesatellites=""
       mode="vertical"
       discard_orig_path="false"
       fuse_paths="false"
       oposite_fuse="false"
       split_items="false"
       split_open="false"
       link_styles="false" /><linearGradient
       id="linearGradient3213"
       inkscape:collect="always"><stop
         style="stop-color:#184886;stop-opacity:1;"
         offset="0"
         id="stop3213" /><stop
         style="stop-color:#4cc7ec;stop-opacity:1;"
         offset="1"
         id="stop3214" /></linearGradient><linearGradient
       inkscape:collect="always"
       xlink:href="#linearGradient3213"
       id="linearGradient3214"
       x1="91.143456"
       y1="243.36455"
       x2="91.143456"
       y2="90.215225"
       gradientUnits="userSpaceOnUse"
       gradientTransform="translate(13.294852,-2.7339344)" /><radialGradient
       inkscape:collect="always"
       xlink:href="#linearGradient3216"
       id="radialGradient3216"
       cx="114.83438"
       cy="134.12497"
       fx="114.83438"
       fy="134.12497"
       r="63.884281"
       gradientTransform="matrix(-0.56261012,1.4945372,-0.86311753,-0.32491575,296.10429,13.550208)"
       gradientUnits="userSpaceOnUse" /></defs><g
     inkscape:label="Layer 1"
     inkscape:groupmode="layer"
     id="layer1"><g
       id="g3216"
       inkscape:export-filename="g3216.png"
       inkscape:export-xdpi="96"
       inkscape:export-ydpi="96"><path
         style="fill:url(#linearGradient3214)"
         d="m 99.37326,242.36098 c -47.910597,-3.12159 -74.146629,-50.53944 -50.612967,-91.47565 5.056159,-8.79506 10.52515,-15.73635 26.937557,-34.18941 12.197282,-13.71384 18.674119,-22.781841 23.84783,-32.090689 3.57609,-6.434316 4.62696,-5.763288 7.26427,-0.237247 5.0932,10.671941 11.87369,19.805016 27.23927,36.690286 23.52395,25.8505 29.73255,35.60814 32.83227,51.60018 6.96845,35.95161 -28.20041,72.26361 -67.50823,69.70253 z M 91.48047,213.9039 c 0.446698,-0.231 1.363519,-0.81253 2.037382,-1.29229 6.320398,-4.49983 13.777628,-4.63357 20.164278,-0.36161 4.0922,2.73723 6.91361,2.77601 9.1485,0.12575 6.49021,-7.69645 -10.64449,-17.40438 -24.912577,-14.11461 -8.216739,1.89452 -14.396607,6.22938 -14.412502,10.10962 -0.01733,4.23067 4.471279,7.34494 7.974919,5.53314 z M 80.237448,193.88483 c 0.596553,-0.32742 2.080296,-1.26577 3.297208,-2.08521 12.894327,-8.68273 27.650974,-8.7938 40.229954,-0.3028 4.31599,2.91336 4.58037,3.03022 6.61964,2.92584 5.4134,-0.27706 7.37659,-6.79833 3.09661,-10.28624 -16.68676,-13.59864 -41.62873,-13.91588 -58.245396,-0.74082 -6.236585,4.94488 -1.809794,14.22792 5.001984,10.48923 z m -9.882079,-20.72444 c 0.642475,-0.42513 2.523005,-1.68489 4.178954,-2.79947 19.5293,-13.14474 44.592137,-12.29083 61.748317,2.10381 3.87039,3.24739 9.88608,0.87201 9.91606,-3.9155 0.0451,-7.20225 -20.93989,-17.86091 -37.55145,-19.07307 -23.250282,-1.6966 -54.158148,13.90335 -45.231879,22.82962 2.01756,2.01756 4.685905,2.34615 6.939998,0.85461 z"
         id="path3211"
         sodipodi:nodetypes="sssssssssssssssssssssssssssss" /><path
         style="display:inline;fill:url(#radialGradient3216)"
         d="m 99.373265,242.36097 c -47.910602,-3.12159 -74.146634,-50.53944 -50.612972,-91.47565 5.056159,-8.79506 10.52515,-15.73635 26.937557,-34.18941 12.197285,-13.71384 18.674115,-22.781839 23.847835,-32.090679 3.576085,-6.434316 4.626955,-5.763288 7.264265,-0.237247 5.0932,10.671937 11.87369,19.805006 27.23926,36.690276 23.52395,25.8505 29.73255,35.60814 32.83227,51.60018 6.96845,35.95161 -28.20041,72.26361 -67.508215,69.70253 z m -7.8928,-28.45708 c 0.4467,-0.231 1.36352,-0.81253 2.03739,-1.29229 6.3204,-4.49983 13.777625,-4.63357 20.164275,-0.36161 4.0922,2.73723 6.91361,2.77601 9.14849,0.12575 6.49021,-7.69645 -10.64448,-17.40438 -24.912565,-14.11461 -8.21674,1.89452 -14.39661,6.22938 -14.4125,10.10962 -0.0173,4.23067 4.47127,7.34494 7.97491,5.53314 z M 80.237448,193.88482 c 0.596553,-0.32742 2.080297,-1.26577 3.297207,-2.08521 12.89433,-8.68273 27.650975,-8.7938 40.229945,-0.3028 4.31599,2.91336 4.58037,3.03022 6.61964,2.92584 5.4134,-0.27706 7.37659,-6.79833 3.09661,-10.28624 -16.68676,-13.59864 -41.628725,-13.91588 -58.245386,-0.74082 -6.236585,4.94488 -1.809794,14.22792 5.001984,10.48923 z m -9.882079,-20.72444 c 0.642475,-0.42513 2.523005,-1.68489 4.178954,-2.79947 19.529302,-13.14474 44.592137,-12.29083 61.748307,2.10381 3.87039,3.24739 9.88608,0.87201 9.91606,-3.9155 0.0451,-7.20225 -20.93989,-17.86091 -37.55144,-19.07307 -23.250285,-1.6966 -54.158148,13.90335 -45.231879,22.82962 2.01756,2.01756 4.685905,2.34615 6.939998,0.85461 z"
         id="path3211-5"
         sodipodi:nodetypes="sssssssssssssssssssssssssssss" /></g></g></svg>
